<?xml version="1.0" encoding="UTF-8" standalone="no"?>
<!-- Created with Inkscape (http://www.inkscape.org/) -->

<svg
   xmlns:svg="http://www.w3.org/2000/svg"
   xmlns="http://www.w3.org/2000/svg"
   version="1.1"
   width="968.75"
   height="720"
   id="svg2816"
   xml:space="preserve"><defs
     id="defs2820"><clipPath
       id="clipPath2832"><path
         d="m 0,0 6457.44,0 0,4801.21 L 0,4801.21 0,0 z"
         id="path2834" /></clipPath><clipPath
       id="clipPath2964"><path
         d="m 1153.25,4664.18 4927.08,0 0,-3564.88 -4927.08,0 0,3564.88 z"
         id="path2966" /></clipPath></defs><g
     transform="matrix(1.25,0,0,-1.25,0,720)"
     id="g2826"><g
       transform="scale(0.119972,0.11997)"
       id="g2828"><g
         clip-path="url(#clipPath2832)"
         id="g2830"><g
           id="g2836"><g
             id="g2838" /><g
             id="g2840"><g
               id="g2842" /><g
               id="g2844"><g
                 id="g2846" /><g
                 transform="matrix(1.000219,0,0,-1.000246,0,4801.2095)"
                 id="g2848"><g
                   transform="matrix(1,0,0,-1,1138,4027)"
                   id="g2850"><text
                     transform="scale(1,-1)"
                     id="text2852"><tspan
                       x="0"
                       y="0"
                       id="tspan2854"
                       style="font-size:268px;font-variant:normal;font-weight:normal;writing-mode:lr-tb;fill:#000000;fill-opacity:1;fill-rule:nonzero;stroke:none;font-family:Arial;-inkscape-font-specification:ArialMT">4</tspan></text>
</g></g></g><g
               id="g2856" /><g
               id="g2858"><g
                 id="g2860" /><g
                 transform="matrix(1.000219,0,0,-1.000246,0,4801.2095)"
                 id="g2862"><g
                   transform="matrix(1,0,0,-1,3165,4027)"
                   id="g2864"><text
                     transform="scale(1,-1)"
                     id="text2866"><tspan
                       x="0"
                       y="0"
                       id="tspan2868"
                       style="font-size:268px;font-variant:normal;font-weight:normal;writing-mode:lr-tb;fill:#000000;fill-opacity:1;fill-rule:nonzero;stroke:none;font-family:Arial;-inkscape-font-specification:ArialMT">5</tspan></text>
</g></g></g><g
               id="g2870" /><g
               id="g2872"><g
                 id="g2874" /><g
                 transform="matrix(1.000219,0,0,-1.000246,0,4801.2095)"
                 id="g2876"><g
                   transform="matrix(1,0,0,-1,5192,4027)"
                   id="g2878"><text
                     transform="scale(1,-1)"
                     id="text2880"><tspan
                       x="0"
                       y="0"
                       id="tspan2882"
                       style="font-size:268px;font-variant:normal;font-weight:normal;writing-mode:lr-tb;fill:#000000;fill-opacity:1;fill-rule:nonzero;stroke:none;font-family:Arial;-inkscape-font-specification:ArialMT">6</tspan></text>
</g></g></g><g
               id="g2884" /><g
               id="g2886"><g
                 id="g2888" /><g
                 transform="matrix(1.000219,0,0,-1.000246,0,4801.2095)"
                 id="g2890"><g
                   transform="matrix(1,0,0,-1,663,3478)"
                   id="g2892"><text
                     transform="scale(1,-1)"
                     id="text2894"><tspan
                       x="0 149 223"
                       y="0"
                       id="tspan2896"
                       style="font-size:268px;font-variant:normal;font-weight:normal;writing-mode:lr-tb;fill:#000000;fill-opacity:1;fill-rule:nonzero;stroke:none;font-family:Arial;-inkscape-font-specification:ArialMT">0.9</tspan></text>
</g></g></g><g
               id="g2898" /><g
               id="g2900"><g
                 id="g2902" /><g
                 transform="matrix(1.000219,0,0,-1.000246,0,4801.2095)"
                 id="g2904"><g
                   transform="matrix(1,0,0,-1,663,1993)"
                   id="g2906"><text
                     transform="scale(1,-1)"
                     id="text2908"><tspan
                       x="0 149 223"
                       y="0"
                       id="tspan2910"
                       style="font-size:268px;font-variant:normal;font-weight:normal;writing-mode:lr-tb;fill:#000000;fill-opacity:1;fill-rule:nonzero;stroke:none;font-family:Arial;-inkscape-font-specification:ArialMT">1.0</tspan></text>
</g></g></g><g
               id="g2912" /><g
               id="g2914"><g
                 id="g2916" /><g
                 transform="matrix(1.000219,0,0,-1.000246,0,4801.2095)"
                 id="g2918"><g
                   transform="matrix(1,0,0,-1,663,508)"
                   id="g2920"><text
                     transform="scale(1,-1)"
                     id="text2922"><tspan
                       x="0 149 223"
                       y="0"
                       id="tspan2924"
                       style="font-size:268px;font-variant:normal;font-weight:normal;writing-mode:lr-tb;fill:#000000;fill-opacity:1;fill-rule:nonzero;stroke:none;font-family:Arial;-inkscape-font-specification:ArialMT">1.1</tspan></text>
</g></g></g><g
               id="g2926" /><g
               transform="matrix(1.000219,0,0,-1.000246,0,4801.2095)"
               id="g2928"><path
                 d="m 1212.98,3768.97 0,-68.98"
                 id="path2930"
                 style="fill:none;stroke:#000000;stroke-width:13;stroke-linecap:round;stroke-linejoin:round;stroke-miterlimit:10;stroke-opacity:1;stroke-dasharray:none" /><path
                 d="m 2227.01,3699.99 0,0"
                 id="path2932"
                 style="fill:none;stroke:#000000;stroke-width:13;stroke-linecap:round;stroke-linejoin:round;stroke-miterlimit:10;stroke-opacity:1;stroke-dasharray:none" /><path
                 d="m 3239.98,3768.97 0,-68.98"
                 id="path2934"
                 style="fill:none;stroke:#000000;stroke-width:13;stroke-linecap:round;stroke-linejoin:round;stroke-miterlimit:10;stroke-opacity:1;stroke-dasharray:none" /><path
                 d="m 4253.01,3699.99 0,0"
                 id="path2936"
                 style="fill:none;stroke:#000000;stroke-width:13;stroke-linecap:round;stroke-linejoin:round;stroke-miterlimit:10;stroke-opacity:1;stroke-dasharray:none" /><path
                 d="m 5266.97,3768.97 0,-68.98"
                 id="path2938"
                 style="fill:none;stroke:#000000;stroke-width:13;stroke-linecap:round;stroke-linejoin:round;stroke-miterlimit:10;stroke-opacity:1;stroke-dasharray:none" /><path
                 d="m 1153,3699.99 4924.98,0"
                 id="path2940"
                 style="fill:none;stroke:#000000;stroke-width:13;stroke-linecap:round;stroke-linejoin:round;stroke-miterlimit:10;stroke-opacity:1;stroke-dasharray:none" /><path
                 d="m 1153,136.99 4924.98,0"
                 id="path2942"
                 style="fill:none;stroke:#000000;stroke-width:13;stroke-linecap:round;stroke-linejoin:round;stroke-miterlimit:10;stroke-opacity:1;stroke-dasharray:none" /><path
                 d="m 1084.01,3403 68.99,0"
                 id="path2944"
                 style="fill:none;stroke:#000000;stroke-width:13;stroke-linecap:round;stroke-linejoin:round;stroke-miterlimit:10;stroke-opacity:1;stroke-dasharray:none" /><path
                 d="m 1153,2659.99 0,0"
                 id="path2946"
                 style="fill:none;stroke:#000000;stroke-width:13;stroke-linecap:round;stroke-linejoin:round;stroke-miterlimit:10;stroke-opacity:1;stroke-dasharray:none" /><path
                 d="m 1084.01,1917.99 68.99,0"
                 id="path2948"
                 style="fill:none;stroke:#000000;stroke-width:13;stroke-linecap:round;stroke-linejoin:round;stroke-miterlimit:10;stroke-opacity:1;stroke-dasharray:none" /><path
                 d="m 1153,1175.98 0,0"
                 id="path2950"
                 style="fill:none;stroke:#000000;stroke-width:13;stroke-linecap:round;stroke-linejoin:round;stroke-miterlimit:10;stroke-opacity:1;stroke-dasharray:none" /><path
                 d="m 1084.01,432.98 68.99,0"
                 id="path2952"
                 style="fill:none;stroke:#000000;stroke-width:13;stroke-linecap:round;stroke-linejoin:round;stroke-miterlimit:10;stroke-opacity:1;stroke-dasharray:none" /><path
                 d="m 1153,3699.99 0,-3563"
                 id="path2954"
                 style="fill:none;stroke:#000000;stroke-width:13;stroke-linecap:round;stroke-linejoin:round;stroke-miterlimit:10;stroke-opacity:1;stroke-dasharray:none" /><path
                 d="m 6077.98,3699.99 0,-3563"
                 id="path2956"
                 style="fill:none;stroke:#000000;stroke-width:13;stroke-linecap:round;stroke-linejoin:round;stroke-miterlimit:10;stroke-opacity:1;stroke-dasharray:none" /></g><g
               id="g2958"><g
                 id="g2960" /><g
                 clip-path="url(#clipPath2964)"
                 id="g2962"><g
                   id="g2968" /><g
                   transform="matrix(1.000219,0,0,-1.000246,0,4801.2095)"
                   id="g2970"><path
                     d="m 1150,2039.02 3,1 3,-38.99 2,-63.05 3,-67.98 2,-49.99 2.99,-9 2,30 3,47.98 3,48.99 2,40.99 3,21.06 2,-14.06 3,-43.99 2,-48.99 3,-33.99 2,-14.99 3,6.99 3,33 2,47.98 3,36.99 2,10 3,-10 2,-12.99 2.99,-17 3,-21.99 2,-20 3,-8 2,-1 3,-1.99 2,3.99 3,19 3,28.99 2,18 3,1 2,-9 3,-17 2,-29.99 3,-33.99 3,-19 2,4 2.99,23 2,33.99 3,43.99 2,43.05 3,19 2,-21.06 3,-50.99 3,-60.98 2,-50.99 3,-22 2,23 3.06,62.98 2,73.98 3,52.05 3,14 2,-27.99 3,-63.05 2,-77.98 3,-58.99 2,-16.99 3,27.99 3,59.99 2,77.98 2.99,70.04 2,31 3,-24 2,-69.04 3,-83.98 2,-68.99 3,-29.99 3,25.99 2,75.99 3,90.97 2,63.05 3,13 2,-34.99 3,-69.05 3,-80.98 2,-63.98 3,-16 2,35.99 2.99,63.99 2,66.98 3,52.05 3,21.99 2,-22.99 3,-59.05 2,-65.98 3,-39.99 2,-4 3,26.99 3,47.99 2,54.99 3,35.05 2,-3 3,-32.05 2,-35 3,-24.99 2,-15 2.99,-4.99 3,5.99 2,13 3,8 2,-1 3,3 2,11 3,9.99 3,0 2,-6 3,-8.99 2,-11 3,-16 2,-11.99 3,4 3,20.99 2,23.99 2.99,23 2,17.99 3,5 2,-19.99 3,-39.99 2,-36.99 3,-15 3,11 2,25.99 3,34.99 2,28 3,5 2,-24 3,-36.99 3,-25.99 2,-2 3,14.99 2,25 2.99,24.99 2,14 3,-9 3,-26.99 2,-29 3,-10.99 2,6.99 3,21 2,30.99 3,32.99 2,12 3,-20.99 3,-47.99 2,-48.99 3,-31.99 2,-4 3,28.99 2,57.99 2.99,61.98 3,34.06 2,-13 3,-48.05 2,-57.99 3,-48.99 2,-24.99 3,12 3,47.99 2,63.98 3,50.05 2.06,20 3,-9 2,-30.06 3,-49.98 3,-53.99 2,-35.99 3,-1 2,29.99 3,42.99 2,41.99 3,31.99 1.99,10 3,-20 3,-43.99 2,-42.98 3,-25 2,-8 3,5 2,20 3,35.99 3,39.99 2,21.99 3,-3 2,-14.99 3,-22 2,-31.99 3,-34.99 3,-14 2,19 2.99,36.99 2,24.99 3,12 2,8 3,-2 2,-21 3,-29.99 3,-15.99 2,3.99 3,7 2,-2 3,6 2,22 3,18.99 3,1 2,-7 3,-2 2,-1 2.99,-12.99 2,-19 3,-4 3,10 2,5 3,-3 2,5 3,15.99 2,11 3,-7 3,-16.99 2,-15 3,-13 2,-14.99 3,-3 2,17.99 3,32 2,22.99 2.99,5 3,-10 2,-14.99 3,-19 2,-17 3,-2.99 2,14.99 3,24 3,18.99 2,11 3,1 2,-10 3,-20.99 2,-25 3,-16.99 3,-2 2,14.99 2.99,23 2,19.99 3,12 2,-2 3,-19 2,-26.99 3,-19.99 3,-4 2,12.99 3,18 2,17.99 3,13 2,3 3,-7 3,-13.99 2,-13 3,-8 2,-4 2.99,-1 2,6 3,13 3,11 2,4.99 3,-2 2,-6.99 3,-10 2,-11 3,-5 3,5 2.06,11 3,11 2,7.99 3,4 2,1 3,-4 2,-7.99 3,-10 3,-8 2,-4 3,7 1.99,14 3,17.99 2,9 3,-7 3,-21.99 2,-30 3,-24.99 2,-5 3,18 2,33.99 3,33.99 3,18 2,-7 3,-28 2,-36.99 3,-26.99 2,-4 3,17 1.99,33.99 3,35.99 3,23.99 2,0 3,-21.99 2,-31.99 3,-30 2,-15.99 3,5 3,24.99 2,30.99 3,18 2,-5 3,-20.99 2,-25 3,-16.99 3,0 2,20.99 2.99,30.99 2,17 3,-8 2,-23.99 3,-24 2,-13.99 3,3 3,19.99 2,32.99 3,26 2,2 3,-19 2,-25.99 3,-24 3,-17.99 2,-9 3,10 2,23.99 2.99,22.99 2,11 3,2 3,-7 2,-16.99 3,-23 2,-14.99 3,5 2,17.99 3,17 3,10.99 2,7 3,2 2,-4 3,-5 2,-1 3,1 2,-3 2.99,-9.99 3,-8 2,1 3,7 2,7 3,3.99 2,-1 3,-6.99 3,-10 2,-6 3,3 2,11 3,8.99 2,0 3,-7.99 3,-10 2,-6 2.99,0 2,5 3,9 2,9.99 3,8 2,4 3,0 3,-4 2,-10.99 3,-21 2,-21.99 3.06,-8 2,10 3,22.99 3,27.99 2,23 3,10 2,-11 3,-27 2,-27.99 3,-15.99 3,-3 2,4.99 2.99,13 2,23 3,29.99 2,20.99 3,4 3,-12.99 2,-29 3,-38.99 2,-34.99 3,-13 2,19 3,40.99 2,37.99 3,20 3,0 2,-18 3,-28.99 1.99,-31 3,-18.99 2,-1 3,15 3,17.99 2,21 3,23.99 2,17 3,-3 2,-25 3,-29.99 3,-17 2,0 3,12 2,21 3,18.99 2,5 3,-17 1.99,-25.99 3,-11 3,9 2,18 3,12.99 2,6 3,-3 2,-14.99 3,-20 3,-13 2,4 3,13 2,11 3,13.99 2,19 3,15 3,-4 2,-26 2.99,-32.99 2,-27.99 3,-13 2,9 3,35.99 2,45.99 3,27.99 3,-7 2,-32.99 3,-36.99 2,-25.99 3,-10 2,8 3,23.99 3,25 2,13.99 3,4 2,3 2.99,1 2,-8 3,-18.99 3,-17 2,-6 3,7 2,15 3,16.99 2,11 3,-5 3,-17.99 2,-18 3,-2 2,11 3,13 2,1.99 3,-9.99 2,-14 2.99,-10 3,1 2,14 3,18.99 2,10 3,-4 2,-11.99 3,-9 3,-2 2,4 3.06,1 2,-3 3,-5 2,-1 3,7 3,15.99 2,15 3,2 2,-17 3,-24.99 2,-17.99 3,0 1.99,14.99 3,17 3,10.99 2,-1 3,-6.99 2,-4 3,6 2,11.99 3,4 3,-11 2,-22.99 3,-17 2,-1.99 3,13.99 2,24 3,21.99 3,5 2,-13 2.99,-20.99 2,-17 3,-6 2,-1 3,-1 3,1 2,8 3,18 2,21.99 3,18 2,0 3,-23 2,-37.99 3,-30.99 3,-3 2,25.99 3,38.99 1.99,30 3,8 2,-15 3,-26.99 3,-21 2,-7 3,5 2,4 3,-1 2,0 3,6 3,15 2,15.99 3,7 2,-11 3,-24.99 2,-26.99 3,-11 1.99,11.99 3,23 3,22.99 2,8 3,-6 2,-10.99 3,-4 2,3 3,3 3,-7 2,-16 3,-15 2,-1 3,17 2,24.99 3,17 3,-3 2,-21.99 2.99,-25 2,-11.99 3,10.99 2,23 3,16.99 2,0 3,-14.99 3,-19 2,-5 3,13 2,21.99 3,17 2,0 3,-16 3,-18.99 2,-11 3,-1 2,3 2.99,0 2,-2 3,4 3,14 2,19.99 3,12 2,-9 3,-31.99 2,-40.99 3,-25.99 3.06,8.99 2,44.99 3,55.99 2,36.99 3,-1 2,-33.99 3,-46.99 2,-37.99 3,-12 3,14 2,27.99 3,25 1.99,19.99 3,16 2,7.99 3,-7.99 3,-29 2,-41.99 3,-37.99 2,-12.99 3,19.99 2,50.99 3,55.99 3,30.05 2,-12.06 3,-41.99 2,-46.99 3,-26.99 2,-2 3,19 1.99,25.99 3,17.99 3,5 2,2 3,5 2,4 3,-7 2,-21.99 3,-29 3,-18.99 2,0 3,21.99 2,33 3,22.99 2,1 3,-16 3,-16.99 2,-5 2.99,6 2,8 3,1 2,-7 3,-12 3,-3 2,14 3,26.99 2,19 3,-5 2,-25 3,-29.99 2,-19.99 3,-4 3,14.99 2,20 3,12.99 2,-0.99 2.99,-5 2,3 3,4.99 3,-3.99 2,-17 3,-21 2,-11.99 3,1 2,21.99 3,36.99 3,32.99 2,7 3,-23.99 2,-33.99 3,-24 2,-6.99 3,4.99 1.99,14 3,20 3,14.99 2,4 3,-2 2,-2 3,-8 2,-23.99 3,-32.99"
                     id="path2972"
                     style="fill:none;stroke:#0000a1;stroke-width:5;stroke-linecap:round;stroke-linejoin:round;stroke-miterlimit:10;stroke-opacity:1;stroke-dasharray:none" /><path
                     d="m 2943.98,1876 3,-18 2,9 3,29.99 2,33.99 3,28 2,10.99 3,-13.99 3,-32.99 2,-31 2.99,-8.99 2,6.99 3,10 2,7 3,13 3,16.99 2,10 3,-3 2,-13 3,-17.99 2,-23 3.06,-18.99 2,4 3,27.99 3,31.99 2,15 3,-5 2,-14 3,-14.99 2,-13 3,-3 3,13 1.99,16.99 3,8 2,0 3,3 2,4 3,-8 3,-21.99 2,-23 3,-8.99 2,6.99 3,19 2,26.99 3,18 2,-9 3,-35.99 3,-39.99 2,-15 3,17 1.99,30.99 3,31.99 2,23 3,7 3,-11 2,-18 3,-12.99 2,-7 3,-11 2,-15 3,-1 3,25 2,35.99 3,26.99 2,3 3,-25.99 2,-43.99 3,-44.99 1.99,-17.99 3,22.99 3,43.99 2,31.99 3,4 2,-11 3,-10.99 2,-4 3,2 3,2 2,-9 3,-24 2,-19.99 3,10 2,44.98 3,48.99 3,17.06 2,-25.06 2.99,-52.98 2,-53.99 3,-27.99 2,12.99 3,45.99 3,43.99 2,14 3,-14 2,-13.99 3,2 2,6.99 3,-4 2,-19.99 3,-27.99 3,-19 2,13 3,57.98 2,78.05 2.99,40.99 2,-28 3,-79.04 3,-78.98 2,-35.99 3,15 2,48.98 3,51.99 2,17 3,-25 3,-38.99 2,-15.99 3,10.99 2,10 3,-16 2,-29.99 3,-15.99 1.99,20.99 3,61.99 3,82.04 2,51.99 3,-21 2,-93.04 3,-103.97 2,-44.99 3,34.99 3,80.98 2,77.98 3.06,37.05 2,-15.99 3,-49.05 2,-38.99 3,-9 3,3 2,-26 3,-55.98 2,-43.99 3,14.99 2,75.99 2.99,100.97 3,71.05 2,-6 3,-91.04 2,-126.97 3,-77.98 2,26.99 3,106.98 2,111.03 3,55.99 3,-7 2,-43.99 3,-49.05 2,-28.99 3,-13 2,-27.99 3,-57.99 3,-55.99 1.99,1 3,87.98 2,140.03 3,110.97 2,15 3,-97.98 3,-159.02 2,-123.97 3,-19.06 2,83.04 3,117.98 2,80.04 3,9 2,-37.06 3,-37.99 3,-7 2,19 3,2 1.99,-45.99 3,-67.98 2,-22 3,60.99 3,114.97 2,89.04 3,-3 2,-113.03 3,-171.96 2,-132.03 3,1 3,137.03 2,181.95 3,118.04 2,9.99 3,-63.98 2,-77.05 3,-45.98 1.99,-7 3,4 3,-28 2,-66.98 3,-54.99 2,18 3,92.98 2,99.97 3,28.06 3,-72.05 2,-123.97 3,-82.04 2,41.05 3,159.96 2,183.02 3,95.98 3,-42.99 2,-135.97 2.99,-138.03 2,-63.98 3,23.99 2,54.99 3,8 3,-62.99 2,-72.98 3,-7 2,86.98 3,138.03 2,117.97 3,28.99 2,-84.98 3,-143.02 3,-102.98 2,-19.99 3,8 2,-24 2.99,-56.05 2,-28.99 3,55.05 3,150.96 2,218.01 3,187.02 2,0 3,-245.01 2,-342.04 3,-223.94 3.06,4 2,203.95 3,313.05 2,318.98 3,191.02 2,-47.06 3,-236 2,-242.94 3,-176.02 3,-245 2,-212.01 3,9 1.99,-281 3,-1154.03 2,-875.97 3,-290.99 3,123.97 2,3954.03 3,6999.96 2,4963.03 3,-1210.01 2,-7133 3,-8154.99 3,-5105.99 2,-1048 3,1656.97 2,2529 3,2366.05 2,1960.95 2.99,1587.05 3,1196.95 2,784 3,451.01 2,230.01 3,-17 2,-337.98 3,-612.03 2,-743.01 3,-729.01 3,-588.98 2,-329.98 3,-36.99 2,125.97 3,58.99 2,-132.97 3,-264 3,-252 1.99,-138.03 3,13 2,143.03 3,193.01 2,159.96 3,113.04 3,122.97 2,177.01 3,190.02 2,120.97 3,3 2,-93.98 3,-118.03 2,-53.99 3,48.99 3,118.03 2,101.98 3,26.99 1.99,-34.99 3,-31.99 2,27.99 3,95.04 3,92.98 2,-5 3,-143.03 2,-227 3,-188.96 2,-64.04 3,60.04 3,110.98 2,71.98 3,-27 2,-104.97 3,-103.04 2,-29.99 3,41.99 2.99,53.05 2,16 3,-17 2,-11 3,27 2,65.98 3,68.98 2,10 3,-84.98 3,-133.03 2,-80.98 3,53.99 2,174.02 3,207.01 2,138.97 3,13.99 3,-95.97 2,-129.97 2.99,-77.05 2,8 3,49.99 2,32.05 3,-12.99 3,-31.06 2,-12.99 3,16.99 2,26.06 3,-12 2.06,-80.04 3,-121.97 2,-89.04 3,14.99 3,122.04 2,154.02 3,93.98 2,-13 3,-107.04 2,-141.96 3,-97.04 3,-9 1.99,56.05 3,61.99 2,33.99 3,17.99 2,25 3,41.99 3,41.05 2,10 3,-48.05 2,-99.98 3,-91.98 2,-7.99 3,92.97 2,137.97 3,102.04 3,15.99 2,-62.98 3,-101.04 1.99,-77.98 3,-14 2,46.99 3,53.99 3,16.99 2,-14.99 3,-9 2,15 3,21.99 2,-4 3,-46.99 3,-80.98 2,-82.98 3,-32.05 2,53.05 3,109.97 2,97.04 3,26.99 2.99,-47.05 2,-74.98 3,-57.99 2,-14.99 3,28.99 2,45.99 3,28.99 2,-2 3,-7.99 3,14.99 2,31.99 3,17 2,-24.99 3,-54.99 2,-55.99 3,-23.99 3,25.99 1.99,70.99 3,71.04 2,21 3,-46.06 2,-75.98 3,-53.98 3,-9 2,27.99 3,42.99 2,34.99 3,15 2,-3 3,1 2,14 3,11.99 3,-15.99 2,-44.99 3,-45.99 1.99,-15 3,20 2,44.99 3,46.98 3,17 2,-26.99 3,-55.99 2,-48.99 3,-9.99 2,19.99 3,24.99 3,16 2,6 3,2 2,5 3,12.99 2,17 3,2 2.99,-25.99 2,-36.99 3,-16 2,17.99 3,40.99 2,38.99 3,20 2,-7 3,-32.99 3,-41.99 2,-26.99 3.06,1 2,12.99 3,10 2,7 3,12 3,14.99 2,7 3,-7 2,-17.99 3,-25 2,-26.99 2.99,-10 3,21 2,44.99 3,37.99 2,7.99 3,-16.99 2,-27.99 3,-24 2,-13.99 3,5.99 3,21 2,17.99 3,2 2,-7.99 3,-5 2,-2 3,-9 3,-15 1.99,-6 3,7 2,16 3,16.99 2,18 3,9 3,-13 2,-28.99 3,-24 2,0 3,17 2,20 3,14.99 2,9 3,-2 3,-17 2,-20.99 3,-13 1.99,-7 3,-8.99 2,-5 3,10.99 3,31 2,28.99 3,11 2,-9 3,-23.99 2,-31 3,-24.99 3,-2 2,25.99 3,35.99 2,23 3,6 2,-1 3,-4 2.99,-12 2,-19.99 3,-20 2,-13 3,-4.99 2,5.99 3,23 2,32.99 3,21 3,-9 2,-31.99 3,-34 2,-17.99 3,1 2,16.99 3,25 3,19.99 1.99,4 3,-7 2,-4 3,2 2,-2 3,-12.99 3,-18 2,-12.99 3,1.99 2,18 3,26.99 2,21 3,1 2,-21 3,-27.99 3,-14 2,4 3,13 1.99,12 3,4 2,-4 3,-5 3,5 2,15.99 3,17 2,-1 3,-22 2,-28.99 3,-19.99 3.06,-1 2,18.99 3,27 2,18.99 3,2 2,-11 3,-10.99 3,-5 2,-8 3,-17 2,-20.99 2.99,-13 2,4 3,27.99 2,45.99 3,40.99 3,12 2,-28.99 3,-51.99 2,-44.99 3,-17 2,17 3,39.99 3,42.99 2,26.99 3,3 2,-13.99 3,-21 2,-22.99 2.99,-27 3,-25.99 2,-10 3,13 2,35.99 3,44.99 2,30.99 3,-1 2,-36.99 3,-53.99 3,-41.99 2,-5.99 3,29.99 2,43.99 3,35.99 2,11 3,-12 3,-21 1.99,-17.99 3,-7 2,1 3,-1 2,-3 3,1 3,9 2,16.99 3,13 2,0 3,-16.99 2,-22 3,-13 3,5 2,19 3,18.99 2,4 3,-11.99 1.99,-20 3,-10 2,11 3,22.99 3,19 2,1 3,-19 2,-24.99 3,-17 2,0 3,15 3,16 2,5 3,-4 2,-6 3,1 2,7 3,4.99 2.99,-5.99 2,-17 3,-18 2,-6.99 3,13.99 2,27 3,24.99 2,10 3,-6 3,-18 2,-16.99 3,-8 2,1 3,2 2,-4 3,-4 3,5 1.99,17 3,20.99 2,10 3,-9 2,-28.99 3,-36.99 3,-24 2,6 3,31.99 2,38.99 3,23 2.06,0 3,-16 2,-22.99 3,-17 3,-7 2,2 3,4 2,4 3,7 2,16 3,16.99 2.99,9"
                     id="path2974"
                     style="fill:none;stroke:#0000a1;stroke-width:5;stroke-linecap:round;stroke-linejoin:round;stroke-miterlimit:10;stroke-opacity:1;stroke-dasharray:none" /><path
                     d="m 4738.02,1952.98 2,-8 3,-21.99 2,-24 3,-14.99 2,1 3,16.99 3,23 2,11.99 3,-4 2,-12.99 3,-7 2,2 3,7 3,2 2,-6 3,-13 2,-11 2.99,2 2,17 3,23.99 2,14 3,-5 3,-18 2,-18.99 3,-10 2,0 3,5 2,5 3,2 3,-2 2,1 3,8 2,11.99 3,4 2,-9.99 2.99,-16 3,-11 2,2 3,11 2,15 3,11.99 2,-1 3,-12.99 2,-13 3,0 3,14 2,12.99 3,2 2,-11 3,-14.99 2,-15 3,-8 3,6 1.99,18 3,17.99 2,6 3,-2 2,-3 3,-3 3,-10.99 2,-21 3,-14.99 2,-3 3,11.99 2,24 3,33.99 3,27.99 2,2 3,-30.99 2,-45.99 3,-32.99 1.99,-8 3,12 2,27.99 3,33.99 3,23 2,1 3,-18 2,-19.99 3,-13 2,-12 3,-9 3,2 2,18 3,21.99 2,15 3,4 2,-4 3,-15 2.99,-19.99 2,-12 3,9 2,20.99 3,13 2,-4 3,-17.99 2,-18 3,-13 3,-0.99 2.06,14.99 3,25.99 2,20 3,1 2,-16 3,-19.99 3,-17 2,-10.99 3,-7 2,7 3,22.99 2,29.99 2.99,24 3,12.99 2,-4 3,-22.99 2,-37.99 3,-37.99 2,-16 3,15 2,33.99 3,34.99 3,24 2,7.99 3,-9.99 2,-27 3,-30.99 2,-20.99 3,-8 3,1 1.99,9 3,21.99 2,28.99 3,25 2,7.99 3,-10.99 3,-24 2,-26.99 3,-21.99 2,-7 3,10.99 2,23 3,20.99 3,10 2,0 3,-5 2,-9 2.99,-11.99 2,-12 3,-8 2,-2 3,3 3,9 2,13 3,10.99 2,4 3,-6 2,-9.99 3,-4 3,5 2,7 3,4.99 2,0 3,-4 2,-7.99 2.99,-9 3,-3 2,6 3,7 2,0 3,-4 2,-1 3,3 2,2 3,-3 3,-2 2,-5 3,-11 2,-11 3,1 2,18 3,22.99 3,15 1.99,5 3,-2 2,-13 3,-24.99 2,-23 3,-6.99 3,7.99 2,17 3,19 2,21.99 3,13 2,-8 3,-28.99 3,-31 2,-17.99 3,0 2,15.99 3,28 1.99,27.99 3,10 2,-14 3,-26.99 3,-18 2,-1 3,14 2,21.99 3,19 2,2 3.06,-19 3,-30.99 2,-23.99 3,-7 2,13 3,25.99 2,27.99 3,17 3,-4 2,-24 3,-32.99 2,-26.99 2.99,-11 2,11 3,31.99 2,37.99 3,29 3,7.99 2,-15.99 3,-31.99 2,-32 3,-15.99 2,6 3,23.99 3,26.99 2,20 3,3 2,-14 3,-21.99 2,-20 2.99,-9 3,0 2,7 3,10 2,9 3,4 2,0 3,-2 2,-5 3,-8 3,-7 2,-1 3,8 2,12 3,9.99 2,8 3,2 3,-7 1.99,-12.99 3,-13 2,-6 3,0 2,4 3,7 3,11 2,10.99 3,3 2,-5 3,-10.99 2,-16 3,-15 3,-6.99 2,6.99 3,23 2,25.99 2.99,18 2,1 3,-13 2,-21.99 3,-21 3,-15 2,0 3,17 2,22.99 3,16 2,5 3,-5 3,-13 2,-19.99 3,-23.99 2,-12 3,7 2,18.99 2.99,19 3,16.99 2,12 3,-2 2,-21.99 3,-28 2,-12.99 3,7.99 2,15 3,12 3,15.99 2,16 3,1 2,-17 3,-19.99 2,-5 3,1 3,-7 1.99,-9 3,8 2,18 3,8.99 2,-1 3,3 3,6 2,-3 3,-17.99 2,-15 3.06,1 2,5 3,-3 3,0 2,16 3,23.99 2,13 3,-5 2,-11 3,-14 2,-25.99 3,-32.99 2.99,-14 2,16 3,32.99 2,28.99 3,19 2,10 3,-2 3,-23 2,-34.99 3,-26.99 2,-10 3,3 2,16 3,27.99 3,40.99 2,36.99 3,11.06 2,-17.06 2.99,-34.99 2,-40.99 3,-39.99 2,-23.99 3,3.99 3,36 2,49.98 3,40.99 2,21.06 3,-1 2,-26.06 3,-50.98 3,-57.99 2,-37.99 3,-2 2,31.99 3,52.99 2,57.99 2.99,45.05 3,8 2,-37.06 3,-61.98 2,-53.99 3,-26.99 2,6 3,33.99 3,49.99 2,44.98 3,17 2,-17 3,-35.99 2,-33.99 3,-23.99 2,-8 3,13 3,29.99 1.99,28.99 3,12 2,-9 3,-19.99 2,-18 3,-14 3,1 2,25 3,32.99 2,18.99 3,-6.99 2,-27 3,-31.99 3,-24.99 2,-11 3,13 2,33.99 2.99,32.99 2,13 3,-9 2,-20 3,-23.99 3,-23.99 2,-16 3,4 2,19.99 3,20 2,15 3,12.99 3,8 2,-3 3,-12 2,-10.99 3,-2 2,0 2.99,-8 3,-9 2,-2 3,4 2,8 3,15.99 2,26 3,21.99 2,-6 3,-34.99 3,-46.99 2.06,-37.99 3,-18.99 2,10 3,44.99 2,64.98 3,53.05 3,14.99 2,-22.99 3,-48.05 2,-61.98 3,-55.99 2,-25 2.99,23 3,61.98 2,71.99 3,56.05 2,22.99 3,-22.99 2,-69.05 3,-88.98 3,-65.98 2,-17 3,32.99 2,69.99 3,83.98 2,64.04 3,17 2,-36.99 3,-67.05 2.99,-68.98 2,-52.99 3,-16.99 2,28.99 3,64.98 2,73.98 3,54.05 3,19 2,-22 3,-60.04 2,-77.98 3,-57.99 2,-17 3,23 3,50.99 2,58.98 3,47.99 2,14.06 2.99,-26.06 2,-45.99 3,-41.99 2,-29.99 3,-15.99 3,5.99 2,31 3,39.99 2,29.99 3,16 2,5.99 3,-7.99 3,-27 2,-30.99 3,-17 2,-2.99 3,2.99 2,3 2.99,11 3,20 2,13.99 3,7 2,7 3,4 2,-14 3,-33.99 3,-35.99 2,-18 3,2 2,19 3,36.99 2,48.99 3,37.05 2,4 3,-24.06 3,-40.99 1.99,-46.99 3,-43.98 2,-22 3,15 2,46.99 3,56.98 3,49.99"
                     id="path2976"
                     style="fill:none;stroke:#0000a1;stroke-width:5;stroke-linecap:round;stroke-linejoin:round;stroke-miterlimit:10;stroke-opacity:1;stroke-dasharray:none" /></g></g></g><g
               id="g2978" /><g
               id="g2980"><g
                 id="g2982" /><g
                 id="g2984"><g
                   id="g2986" /><g
                   transform="matrix(1.000219,0,0,-1.000246,0,4801.2095)"
                   id="g2988"><g
                     transform="matrix(0,-1,-1,0,463,3983)"
                     id="g2990"><text
                       transform="scale(1,-1)"
                       id="text2992"><tspan
                         x="0 171 239 410 581 666 751 1007 1178 1349 1503 1674 1776 1947 2118 2203 2374 2528 2613 2784 2955 3040 3211 3365 3450 3621"
                         y="0"
                         id="tspan2994"
                         style="font-size:307px;font-variant:normal;font-weight:normal;writing-mode:lr-tb;fill:#000000;fill-opacity:1;fill-rule:nonzero;stroke:none;font-family:Arial;-inkscape-font-specification:ArialMT">Light measured by detector</tspan></text>
</g></g></g><g
                 id="g2996" /></g><g
               id="g2998" /><g
               id="g3000"><g
                 id="g3002" /><g
                 id="g3004"><g
                   id="g3006" /><g
                   transform="matrix(1.000219,0,0,-1.000246,0,4801.2095)"
                   id="g3008"><g
                     transform="matrix(1,0,0,-1,2241,4393)"
                     id="g3010"><text
                       transform="scale(1,-1)"
                       id="text3012"><tspan
                         x="0 256 324 426 528 699 801 886 1057 1228 1382 1450 1535 1603 1774 1945 2030 2132 2388 2644"
                         y="0"
                         id="tspan3014"
                         style="font-size:307px;font-variant:normal;font-weight:normal;writing-mode:lr-tb;fill:#000000;fill-opacity:1;fill-rule:nonzero;stroke:none;font-family:Arial;-inkscape-font-specification:ArialMT">Mirror position (mm)</tspan></text>
</g></g></g><g
                 id="g3016" /></g><g
               id="g3018" /></g><g
             id="g3020" /></g></g></g></g></svg>